<mxfile host="app.diagrams.net" modified="2024-03-07T22:10:10.712Z" agent="Mozilla/5.0 (Windows NT 10.0; Win64; x64) AppleWebKit/537.36 (KHTML, like Gecko) Chrome/122.0.0.0 Safari/537.36" etag="zg5vw4mEmKuef6P525oA" version="24.0.2" type="github">
  <diagram name="Page-1" id="ilkN2TOa1lTFrM64he_S">
    <mxGraphModel dx="1221" dy="652" grid="1" gridSize="10" guides="1" tooltips="1" connect="1" arrows="1" fold="1" page="1" pageScale="1" pageWidth="850" pageHeight="1100" math="0" shadow="0">
      <root>
        <mxCell id="0" />
        <mxCell id="1" parent="0" />
        <mxCell id="zt4tbmcjYhXW2zwYY23l-1" value="Server" style="rounded=0;whiteSpace=wrap;html=1;" vertex="1" parent="1">
          <mxGeometry x="90" y="180" width="120" height="60" as="geometry" />
        </mxCell>
        <mxCell id="zt4tbmcjYhXW2zwYY23l-3" value="&lt;div&gt;&lt;br&gt;&lt;/div&gt;&lt;div&gt;A&lt;/div&gt;" style="shape=actor;whiteSpace=wrap;html=1;" vertex="1" parent="1">
          <mxGeometry x="130" y="60" width="40" height="60" as="geometry" />
        </mxCell>
        <mxCell id="zt4tbmcjYhXW2zwYY23l-4" value="&lt;div&gt;&lt;br&gt;&lt;/div&gt;&lt;div&gt;B&lt;/div&gt;" style="shape=actor;whiteSpace=wrap;html=1;" vertex="1" parent="1">
          <mxGeometry x="10" y="260" width="40" height="60" as="geometry" />
        </mxCell>
        <mxCell id="zt4tbmcjYhXW2zwYY23l-5" value="&lt;div&gt;&lt;br&gt;&lt;/div&gt;&lt;div&gt;C&lt;/div&gt;" style="shape=actor;whiteSpace=wrap;html=1;" vertex="1" parent="1">
          <mxGeometry x="240" y="260" width="40" height="60" as="geometry" />
        </mxCell>
        <mxCell id="zt4tbmcjYhXW2zwYY23l-6" value="" style="endArrow=classic;startArrow=classic;html=1;rounded=0;entryX=0.197;entryY=1;entryDx=0;entryDy=0;entryPerimeter=0;" edge="1" parent="1" target="zt4tbmcjYhXW2zwYY23l-1">
          <mxGeometry width="50" height="50" relative="1" as="geometry">
            <mxPoint x="70" y="270" as="sourcePoint" />
            <mxPoint x="120" y="280" as="targetPoint" />
          </mxGeometry>
        </mxCell>
        <mxCell id="zt4tbmcjYhXW2zwYY23l-7" value="" style="endArrow=classic;startArrow=classic;html=1;rounded=0;entryX=0.75;entryY=1;entryDx=0;entryDy=0;" edge="1" parent="1" target="zt4tbmcjYhXW2zwYY23l-1">
          <mxGeometry width="50" height="50" relative="1" as="geometry">
            <mxPoint x="230" y="270" as="sourcePoint" />
            <mxPoint x="124" y="250" as="targetPoint" />
          </mxGeometry>
        </mxCell>
        <mxCell id="zt4tbmcjYhXW2zwYY23l-8" value="" style="endArrow=classic;startArrow=classic;html=1;rounded=0;entryX=0.5;entryY=0;entryDx=0;entryDy=0;" edge="1" parent="1" target="zt4tbmcjYhXW2zwYY23l-1">
          <mxGeometry width="50" height="50" relative="1" as="geometry">
            <mxPoint x="150" y="130" as="sourcePoint" />
            <mxPoint x="124" y="250" as="targetPoint" />
          </mxGeometry>
        </mxCell>
        <mxCell id="zt4tbmcjYhXW2zwYY23l-9" value="A" style="shape=umlLifeline;perimeter=lifelinePerimeter;whiteSpace=wrap;html=1;container=1;dropTarget=0;collapsible=0;recursiveResize=0;outlineConnect=0;portConstraint=eastwest;newEdgeStyle={&quot;curved&quot;:0,&quot;rounded&quot;:0};" vertex="1" parent="1">
          <mxGeometry x="360" y="50" width="100" height="300" as="geometry" />
        </mxCell>
        <mxCell id="zt4tbmcjYhXW2zwYY23l-10" value="Server" style="shape=umlLifeline;perimeter=lifelinePerimeter;whiteSpace=wrap;html=1;container=1;dropTarget=0;collapsible=0;recursiveResize=0;outlineConnect=0;portConstraint=eastwest;newEdgeStyle={&quot;curved&quot;:0,&quot;rounded&quot;:0};" vertex="1" parent="1">
          <mxGeometry x="490" y="50" width="100" height="300" as="geometry" />
        </mxCell>
        <mxCell id="zt4tbmcjYhXW2zwYY23l-11" value="B" style="shape=umlLifeline;perimeter=lifelinePerimeter;whiteSpace=wrap;html=1;container=1;dropTarget=0;collapsible=0;recursiveResize=0;outlineConnect=0;portConstraint=eastwest;newEdgeStyle={&quot;curved&quot;:0,&quot;rounded&quot;:0};" vertex="1" parent="1">
          <mxGeometry x="620" y="50" width="100" height="300" as="geometry" />
        </mxCell>
        <mxCell id="zt4tbmcjYhXW2zwYY23l-12" value="C" style="shape=umlLifeline;perimeter=lifelinePerimeter;whiteSpace=wrap;html=1;container=1;dropTarget=0;collapsible=0;recursiveResize=0;outlineConnect=0;portConstraint=eastwest;newEdgeStyle={&quot;curved&quot;:0,&quot;rounded&quot;:0};" vertex="1" parent="1">
          <mxGeometry x="750" y="50" width="100" height="300" as="geometry" />
        </mxCell>
        <mxCell id="zt4tbmcjYhXW2zwYY23l-13" value="" style="endArrow=classic;html=1;rounded=0;" edge="1" parent="1" target="zt4tbmcjYhXW2zwYY23l-10">
          <mxGeometry width="50" height="50" relative="1" as="geometry">
            <mxPoint x="424" y="117" as="sourcePoint" />
            <mxPoint x="480" y="120" as="targetPoint" />
          </mxGeometry>
        </mxCell>
        <mxCell id="zt4tbmcjYhXW2zwYY23l-14" value="I am online" style="text;html=1;align=center;verticalAlign=middle;resizable=0;points=[];autosize=1;strokeColor=none;fillColor=none;" vertex="1" parent="1">
          <mxGeometry x="425" y="90" width="80" height="30" as="geometry" />
        </mxCell>
        <mxCell id="zt4tbmcjYhXW2zwYY23l-15" value="" style="endArrow=classic;html=1;rounded=0;" edge="1" parent="1" target="zt4tbmcjYhXW2zwYY23l-11">
          <mxGeometry width="50" height="50" relative="1" as="geometry">
            <mxPoint x="553" y="141" as="sourcePoint" />
            <mxPoint x="530" y="350" as="targetPoint" />
          </mxGeometry>
        </mxCell>
        <mxCell id="zt4tbmcjYhXW2zwYY23l-16" value="" style="endArrow=classic;html=1;rounded=0;" edge="1" parent="1" target="zt4tbmcjYhXW2zwYY23l-12">
          <mxGeometry width="50" height="50" relative="1" as="geometry">
            <mxPoint x="553" y="160" as="sourcePoint" />
            <mxPoint x="650" y="340" as="targetPoint" />
          </mxGeometry>
        </mxCell>
        <mxCell id="zt4tbmcjYhXW2zwYY23l-17" value="A is online" style="text;html=1;align=center;verticalAlign=middle;resizable=0;points=[];autosize=1;strokeColor=none;fillColor=none;" vertex="1" parent="1">
          <mxGeometry x="550" y="108" width="80" height="30" as="geometry" />
        </mxCell>
        <mxCell id="zt4tbmcjYhXW2zwYY23l-18" value="A is online" style="text;html=1;align=center;verticalAlign=middle;resizable=0;points=[];autosize=1;strokeColor=none;fillColor=none;" vertex="1" parent="1">
          <mxGeometry x="690" y="130" width="80" height="30" as="geometry" />
        </mxCell>
      </root>
    </mxGraphModel>
  </diagram>
</mxfile>
